<svg width="31" height="26" viewBox="0 0 31 26" >
<g >
<path d="M22.3164 16.7302C21.852 18.7256 21.7488 20.2279 21.7441 20.2977C21.6878 21.3442 20.8152 22.1628 19.7503 22.1628H19.6377C19.117 22.1349 18.6197 21.8977 18.2679 21.507C17.9113 21.1116 17.7284 20.6047 17.7565 20.0791C17.7659 19.9535 17.794 19.5209 17.8691 18.8744C17.8409 18.7954 17.8175 18.7163 17.7987 18.6372C17.7987 18.6372 17.7284 18.3628 17.5548 17.9628C17.2217 18.0279 16.9027 18.0651 16.5931 18.0837V20.5814L9.62651 24.2419V5.41862L16.5931 1.75815V9.53025C17.2123 9.77211 17.7659 10.0884 18.2444 10.4837C18.3007 9.00932 18.676 7.61862 19.3562 6.39536C20.1444 4.97211 21.3172 3.79071 22.8512 2.85118L17.5735 0.0744322C17.5735 0.0744322 17.5266 0.0558276 17.5032 0.0511764C17.4797 0.0418741 17.4563 0.0279206 17.4281 0.0232694C17.4 0.0139671 17.3671 0.0139671 17.339 0.00931594C17.3108 0.00931594 17.2874 1.36103e-05 17.2592 1.36103e-05C17.2311 1.36103e-05 17.1982 0.00466477 17.1701 0.00931594C17.1419 0.00931594 17.1185 0.0139671 17.0903 0.0232694C17.0622 0.0325717 17.0387 0.0418741 17.0106 0.0511764C16.9871 0.0604787 16.9684 0.0651299 16.9449 0.0744322L8.96035 4.27443L0.975787 0.0744322C0.76937 -0.0325445 0.520732 -0.0278934 0.323699 0.0930369C0.121973 0.213967 0 0.427921 0 0.660479V20.9768C0 21.2186 0.136047 21.4465 0.351846 21.5582L8.65073 25.9209C8.67887 25.9349 8.71171 25.9442 8.74455 25.9535C8.76332 25.9582 8.77739 25.9675 8.79616 25.9721C8.85245 25.9861 8.90875 25.9954 8.96504 25.9954C9.02134 25.9954 9.07763 25.9861 9.13393 25.9721C9.15269 25.9721 9.16677 25.9582 9.18553 25.9535C9.21837 25.9442 9.24652 25.9349 9.27936 25.9209L17.2639 21.7209L25.2485 25.9209C25.347 25.9721 25.4549 26 25.5581 26C25.6754 26 25.7974 25.9675 25.9006 25.907C26.1023 25.7861 26.2243 25.5721 26.2243 25.3442V16.0744C25.1547 16.5116 23.9209 16.7395 22.5182 16.7395C22.4525 16.7395 22.3868 16.7395 22.3164 16.7395V16.7302Z" fill="#4f3674"/>
<path d="M30.9577 2.26514C30.8686 2.06514 30.6575 1.94886 30.437 1.97676C25.4783 2.62793 22.1897 4.35351 20.6698 7.107C19.056 10.014 19.9192 13.1582 20.3601 14.3628C20.1021 15.2047 19.9004 16.0047 19.7503 16.7303C19.5204 16.2372 19.1967 15.6558 18.7557 15.0698C18.7745 14.2744 18.6291 13.014 17.6908 11.9907C16.5039 10.693 14.4444 10.2047 11.5687 10.5396C11.3482 10.5628 11.1699 10.7349 11.1371 10.9535C11.0996 11.1721 11.2168 11.3861 11.4186 11.4791C11.4749 11.507 12.8588 12.1675 12.8869 13.5861C12.8916 13.6558 13.0605 15.2791 14.4069 16.1256C14.9229 16.4512 15.5328 16.614 16.2271 16.614C16.8558 16.614 17.5594 16.4791 18.3288 16.2093C19.0325 17.3256 19.2718 18.2884 19.2718 18.307C19.2952 18.414 19.3562 18.4977 19.4313 18.5675C19.3046 19.4744 19.2671 20.0605 19.2624 20.1535C19.2483 20.4279 19.4594 20.6605 19.7362 20.6744C19.7456 20.6744 19.755 20.6744 19.7644 20.6744C20.0271 20.6744 20.2476 20.4698 20.2616 20.2047C20.2616 20.1582 20.3977 17.9349 21.1858 15.1675C21.6502 15.214 22.1006 15.2419 22.5275 15.2419C24.6902 15.2419 26.3556 14.6512 27.4956 13.4791C29.541 11.3768 29.0812 8.21397 29.0531 8.04653C28.3682 5.02793 30.7373 2.9256 30.8358 2.83723C31 2.69304 31.0516 2.46048 30.9624 2.26048L30.9577 2.26514Z" fill="#4f3674"/>
</g>
</svg>
