<svg width="24" height="24" viewBox="0 0 24 24"  xmlns="http://www.w3.org/2000/svg">
<path d="M3.44314 9.66897L3.40773 2.31981L6.1139 5.02598C6.20161 4.93923 6.29076 4.85393 6.38232 4.77104C6.54207 4.62573 6.70759 4.48619 6.87745 4.3529C6.99053 4.26389 7.1065 4.17776 7.2244 4.09451C7.3423 4.01126 7.46213 3.92994 7.58388 3.85245C7.645 3.81348 7.70612 3.77545 7.76869 3.73792C7.95445 3.6253 8.14504 3.51942 8.33902 3.42073C8.53348 3.32157 8.73228 3.22961 8.93446 3.14485C10.0142 2.69266 11.2023 2.44502 12.4514 2.45104C13.7005 2.45706 14.8905 2.71568 15.9752 3.17878C16.1782 3.26549 16.3779 3.35937 16.5733 3.46041C16.7687 3.56145 16.9599 3.6687 17.1467 3.78311C17.2087 3.82125 17.2711 3.85986 17.3326 3.89943C17.4556 3.97857 17.5762 4.0601 17.6945 4.14496C17.8127 4.22983 17.9295 4.31708 18.0439 4.40671C18.2151 4.54164 18.382 4.68278 18.5431 4.82964C18.597 4.87875 18.6499 4.92786 18.7024 4.9784C18.8073 5.07853 18.9102 5.18152 19.0109 5.28689C19.0609 5.33982 19.1105 5.39226 19.1596 5.44614C19.3065 5.6073 19.4476 5.77417 19.5825 5.94533C19.6727 6.05927 19.7599 6.17608 19.8443 6.29478C19.9287 6.41349 20.0112 6.53411 20.0898 6.65662C20.1294 6.71811 20.168 6.7796 20.2061 6.84253C20.3206 7.02939 20.4283 7.22101 20.5288 7.41595C20.6299 7.61137 20.7238 7.81107 20.8105 8.01408C21.0474 8.56841 21.2302 9.15073 21.3534 9.75432C21.4716 10.3311 21.5348 10.9272 21.5377 11.5374C21.5415 12.3219 21.4456 13.082 21.2608 13.8067C21.1518 14.2363 21.012 14.6523 20.8439 15.0543C20.6739 15.4592 20.4756 15.849 20.2513 16.2206C20.2138 16.2822 20.1758 16.3443 20.1368 16.4054C20.0588 16.5276 19.9785 16.6474 19.8947 16.7649C19.8115 16.8827 19.7249 16.9982 19.6363 17.1118C19.3693 17.452 19.0787 17.7725 18.7659 18.0708C18.6615 18.1704 18.5552 18.2671 18.446 18.3609C18.3367 18.4547 18.2256 18.5466 18.1125 18.6357C17.8854 18.8137 17.6501 18.9807 17.4061 19.1361C17.3449 19.1751 17.2838 19.2131 17.2213 19.2506C15.8578 20.0751 14.2551 20.5458 12.5381 20.537C10.8215 20.5288 9.21417 20.0426 7.84226 19.2055C7.78029 19.1673 7.71784 19.1287 7.65635 19.0891C7.41084 18.9313 7.17342 18.7616 6.94506 18.5818C6.83111 18.4917 6.71859 18.3992 6.60893 18.3039C6.49927 18.2085 6.39152 18.1103 6.28615 18.0106C6.23322 17.9606 6.18125 17.9096 6.13023 17.8585C6.07537 17.8037 6.02146 17.7479 5.96802 17.6916C5.89774 17.6175 5.82937 17.5424 5.76195 17.4664C5.68827 17.3832 5.61506 17.2995 5.54424 17.2134C5.37803 17.012 5.21993 16.8033 5.07138 16.5881C5.0381 16.5395 5.00482 16.491 4.97249 16.4425C4.82728 16.2238 4.69065 15.9985 4.56405 15.7671C4.51138 15.6706 4.4611 15.5726 4.41129 15.4742C4.38469 15.4209 4.35809 15.3666 4.33245 15.3134C4.15294 14.9365 3.9978 14.5459 3.87133 14.143C3.82756 14.0048 3.78761 13.8648 3.75053 13.7238L5.95758 13.7344C6.91323 16.4489 9.50183 18.4122 12.5289 18.4268C15.5559 18.4413 18.1262 16.5034 19.0552 13.7975C19.2989 13.087 19.4308 12.3237 19.427 11.5286C19.424 10.9127 19.3397 10.3146 19.1856 9.74483C18.383 6.7801 15.6682 4.57918 12.4621 4.56373C10.573 4.55463 8.86298 5.306 7.61738 6.52946L10.7928 9.70487L5.78861 9.68075" fill="currentColor"/>
</svg>
