<svg width="18" height="24" viewBox="0 0 18 24" fill="none" xmlns="http://www.w3.org/2000/svg">
<path fill-rule="evenodd" clip-rule="evenodd" d="M17.1538 15.0901C17.1538 19.7178 13.3114 23.4736 8.57693 23.4736C3.84249 23.4736 4.44869e-05 19.7178 4.48914e-05 15.0901C4.50564e-05 13.2035 0.63862 11.4619 1.71588 10.0605L1.71536 10.0605L9.00572 0.00025215L15.4384 10.0605L15.438 10.0605C16.5152 11.4619 17.1538 13.2035 17.1538 15.0901Z" fill="black"/>
<path fill-rule="evenodd" clip-rule="evenodd" d="M8.512 21.6641C12.2141 21.6641 15.2188 18.6594 15.2188 14.9573C15.2188 13.4471 14.7188 12.053 13.8754 10.9315L8.8473 2.88656L3.15178 10.9273C2.30649 12.0495 1.80525 13.4452 1.80525 14.9573C1.80525 18.6594 4.80987 21.6641 8.512 21.6641ZM7.17069 18.6381L13.1684 12.6404L11.9038 11.3757L7.17069 16.1088L5.1203 14.0584L3.85567 15.3231L7.17069 18.6381Z" fill="black"/>
</svg>
