<svg width="23" height="32" viewBox="0 0 23 32" fill="none" xmlns="http://www.w3.org/2000/svg">
<g clip-path="url(#clip0_3_21)">
<path fill-rule="evenodd" clip-rule="evenodd" d="M23 20.2319C23 26.4368 17.848 31.4727 11.5 31.4727C5.152 31.4727 -5.425e-07 26.4368 0 20.2319C2.211e-07 17.7026 0.856072 15.3675 2.30027 13.4886H2.30011L12.0751 -0.000305176L20.7001 13.4886H20.6997C22.1439 15.3675 23 17.7026 23 20.2319Z" fill="white"/>
<path fill-rule="evenodd" clip-rule="evenodd" d="M11.4135 29.0498C16.3774 29.0498 20.406 25.0212 20.406 20.0573C20.406 18.0338 19.7366 16.1657 18.6072 14.6626L11.8631 3.87164L4.21949 14.6626C3.09013 16.1657 2.42102 18.0338 2.42102 20.0573C2.42102 25.0212 6.44966 29.0498 11.4135 29.0498ZM9.61497 24.9917L17.6568 16.9498L15.9611 15.2542L12.788 18.4273L9.61497 21.6004L6.86579 18.8512L5.17015 20.5468L9.61497 24.9917Z" fill="#FF0000"/>
<path d="M13.3125 19.625C14.0247 20.1948 14.7102 20.7284 15.1562 21.5313C15.2102 21.6283 15.2938 21.6985 15.1007 21.6076C14.6081 21.3758 14.0658 21.0569 13.6736 20.6736C13.4144 20.4203 13.1322 20.1947 12.8785 19.941C12.7198 19.7823 12.25 19.5267 12.25 19.2813C12.25 18.839 12.8655 18.8336 13.2014 18.7361C13.625 18.6131 13.9446 18.587 14.3125 18.2986C14.6513 18.0331 14.9946 17.5318 15.1528 17.125C15.2495 16.8763 15.2776 16.6818 15.5312 16.5972C15.6432 16.5599 15.9074 16.7646 16 16.8264C16.2155 16.97 16.334 17.4425 16.4861 17.6597C16.5546 17.7576 16.6568 17.857 16.6875 17.9722C17.1154 19.5767 14.5943 19.3537 13.7292 19.5278C12.821 19.7105 12.0318 20.1053 11.2361 20.5694C10.6824 20.8925 10.0646 21.2703 9.62847 21.75C9.0465 22.3902 9.89719 23.0693 10.4062 23.4653C10.5136 23.5488 9.3921 23.8404 9.1875 23.8889C8.4658 24.0598 7.73695 23.7337 7.15972 23.3125C6.49583 22.828 6.1094 22.1548 5.80903 21.3889C5.66439 21.0201 5.5757 20.6299 5.37847 20.2847C5.30675 20.1592 5.25 20.0206 5.25 19.875C5.25 19.3412 5.68744 19.6944 5.92708 19.934C6.54969 20.5566 6.85983 21.4223 7.47222 22.0347C7.72163 22.2841 7.97694 22.2483 8.27778 22.4028C8.63084 22.5841 8.90014 23.0208 9.19097 23.2847C9.58606 23.6432 9.95753 23.9614 10.4375 24.2014C11.0146 24.4899 11.4741 24.4829 11.7188 23.8056C11.8677 23.393 12.0161 22.9837 11.8438 22.5625C11.5498 21.844 10.7238 21.4479 10.0139 21.25C9.25531 21.0386 8.70803 21.8173 8.00347 21.8715C7.56391 21.9053 6.78448 21.1301 6.61111 20.7361C6.40063 20.2577 6.82421 20.0459 7.29861 19.8264C7.58117 19.6957 7.85447 19.5073 8.17361 19.5C8.48405 19.4929 8.56192 19.7584 8.72917 19.9792C8.99055 20.3242 9.4375 20.8239 9.4375 21.2813C9.4375 21.5821 10.405 21.334 10.5417 21.2986C11.3993 21.0766 12.1683 20.7044 12.8194 20.1042C13.2106 19.7436 13.5712 19.3891 13.8472 18.9375C13.932 18.7988 14.0625 18.7332 14.0625 18.5625" stroke="#FF0000" stroke-width="3" stroke-linecap="round"/>
<path d="M7.18053 15.1915L6.19218 16.1766C5.93594 16.432 5.93594 16.8698 6.19218 17.1617L9.5599 20.5182L6.19218 23.8748C5.93594 24.1302 5.93594 24.568 6.19218 24.8599L7.14393 25.8085C7.40017 26.0638 7.83943 26.0638 8.13228 25.8085L11.5 22.4519L14.8677 25.8085C15.124 26.0638 15.5632 26.0638 15.8561 25.8085L16.8078 24.8599C17.0641 24.6045 17.0641 24.1667 16.8078 23.8748L13.4401 20.4818L16.8078 17.1252C17.0641 16.8698 17.0641 16.432 16.8078 16.1401L15.8561 15.1915C15.5998 14.9362 15.1606 14.9362 14.8677 15.1915L11.5 18.5481L8.13228 15.1915C7.87604 14.9362 7.43677 14.9362 7.18053 15.1915Z" fill="white"/>
</g>
<defs>
<clipPath id="clip0_3_21">
<rect width="23" height="32" fill="white"/>
</clipPath>
</defs>
</svg>
