<svg width="23" height="32" viewBox="0 0 23 32" fill="none" xmlns="http://www.w3.org/2000/svg">
<path fill-rule="evenodd" clip-rule="evenodd" d="M23 20.2319C23 26.4368 17.848 31.4727 11.5 31.4727C5.15201 31.4727 8.06964e-06 26.4368 8.61209e-06 20.2319C8.83321e-06 17.7026 0.856081 15.3675 2.30027 13.4886L2.30012 13.4886L12.0751 -0.000300409L20.7001 13.4886L20.6997 13.4886C22.1439 15.3675 23 17.7026 23 20.2319Z" fill="white"/>
<path fill-rule="evenodd" clip-rule="evenodd" d="M20.4058 20.0573C20.4058 25.0212 16.3771 29.0498 11.4133 29.0498C6.4494 29.0498 2.42077 25.0212 2.42077 20.0573C2.42077 18.0338 3.09021 16.1657 4.21957 14.6626L4.21923 14.6626L11.8629 3.87163L18.6072 14.6626L18.607 14.6626C19.7363 16.1657 20.4058 18.0338 20.4058 20.0573Z" fill="#EEEEEE"/>
<circle cx="11.5" cy="19.5" r="6.5" fill="white"/>
<path d="M11 15V19.5L14.5 22" stroke="#4ABBA7" stroke-width="2"/>
</svg>
