<svg width="23" height="32" viewBox="0 0 23 32" fill="none" xmlns="http://www.w3.org/2000/svg">
<path fill-rule="evenodd" clip-rule="evenodd" d="M23 20.2319C23 26.4368 17.848 31.4727 11.5 31.4727C5.15201 31.4727 1.18843e-05 26.4368 1.24268e-05 20.2319C1.26479e-05 17.7026 0.856084 15.3675 2.30028 13.4886L2.30012 13.4886L12.0751 -0.000298501L20.7001 13.4886L20.6997 13.4886C22.1439 15.3675 23 17.7026 23 20.2319Z" fill="white"/>
<path fill-rule="evenodd" clip-rule="evenodd" d="M11.4135 29.0498C16.3774 29.0498 20.406 25.0212 20.406 20.0573C20.406 18.0338 19.7366 16.1657 18.6072 14.6626L18.6075 14.6626L11.8631 3.87163L4.21948 14.6626L4.21982 14.6626C3.09046 16.1657 2.42101 18.0338 2.42101 20.0573C2.42101 25.0212 6.44965 29.0498 11.4135 29.0498ZM9.61496 24.9917L17.6568 16.9498L15.9611 15.2542L9.61496 21.6004L6.86578 18.8512L5.17014 20.5468L9.61496 24.9917Z" fill="#4ABBA7"/>
</svg>
