<svg width="20" height="17" viewBox="0 0 20 17" fill="none" xmlns="http://www.w3.org/2000/svg">
<g clip-path="url(#clip0_2611_8804)">
<path d="M10.6504 11.5275C10.654 11.5275 10.6573 11.5268 10.6609 11.5264C10.6573 11.5264 10.654 11.5271 10.6504 11.5275Z" fill="black"/>
<path d="M9.80054 11.5566C9.81394 11.557 9.82734 11.5578 9.84114 11.5582C9.82774 11.5582 9.81394 11.557 9.80054 11.5566Z" fill="black"/>
<path d="M10.1594 11.5582C10.1728 11.5582 10.1866 11.557 10.2 11.5566C10.1866 11.557 10.1728 11.5578 10.1594 11.5582Z" fill="black"/>
<path d="M9.3396 11.5264C9.34325 11.5264 9.3465 11.5271 9.35016 11.5275C9.3465 11.5275 9.34325 11.5268 9.3396 11.5264Z" fill="black"/>
<path d="M10.661 11.5258C10.6573 11.5258 10.6541 11.5266 10.6504 11.527C10.6041 11.5316 10.5578 11.5359 10.5115 11.5394C10.5022 11.5402 10.4929 11.5409 10.4835 11.5417C10.4421 11.5448 10.4007 11.5475 10.3593 11.5499C10.3463 11.5506 10.3333 11.5514 10.3203 11.5522C10.2805 11.5541 10.2403 11.5557 10.2001 11.5569C10.1867 11.5572 10.1729 11.558 10.1595 11.5584C10.1063 11.5596 10.0535 11.5603 10.0003 11.5603C9.94712 11.5603 9.89393 11.5596 9.84114 11.5584C9.82774 11.5584 9.81434 11.5572 9.80054 11.5569C9.76034 11.5557 9.72014 11.5541 9.68035 11.5522C9.66735 11.5514 9.65436 11.5506 9.64136 11.5499C9.59995 11.5475 9.55853 11.5448 9.51711 11.5417C9.50777 11.5409 9.49843 11.5402 9.4891 11.5394C9.44281 11.5355 9.39652 11.5316 9.35023 11.527C9.34657 11.527 9.34332 11.5262 9.33967 11.5258C7.97981 11.3853 6.71902 10.813 5.73557 9.87851C5.6641 9.8106 5.59467 9.74152 5.52767 9.6709C3.09908 10.9942 1.37459 13.3617 1.02295 16.1336H18.9777C18.6264 13.3613 16.9015 10.9942 14.473 9.6709C14.4056 9.74152 14.3361 9.8106 14.2651 9.87851C13.2816 10.8133 12.0208 11.3857 10.661 11.5258Z" fill="#6B6B6B"/>
<path d="M19.8774 16.0299C19.6898 14.549 19.1286 13.1121 18.2548 11.8738C17.4252 10.6983 16.3143 9.70181 15.0368 8.98352C15.6951 8.04287 16.0483 6.93807 16.0483 5.7805C16.0483 2.593 13.3351 0 10.0002 0C6.66531 0 3.95209 2.593 3.95209 5.78011C3.95209 6.93768 4.30576 8.04248 4.96356 8.98313C3.68612 9.70142 2.57517 10.698 1.74561 11.8734C0.87179 13.1117 0.310628 14.5486 0.123033 16.0295L0 16.9996H20L19.877 16.0295L19.8774 16.0299ZM4.85839 5.78011C4.85839 3.06604 7.16069 0.866143 10.0002 0.866143C12.8397 0.866143 15.142 3.06643 15.142 5.78011C15.142 7.00055 14.6763 8.1166 13.9056 8.97615C13.8163 9.07588 13.7233 9.17211 13.6258 9.26447C12.7004 10.1442 11.4263 10.6894 10.0189 10.6941C10.0128 10.6941 10.0063 10.6941 10.0002 10.6941C9.99411 10.6941 9.98802 10.6941 9.98193 10.6941C8.57456 10.6894 7.30038 10.1442 6.37458 9.26447C6.27713 9.17211 6.18414 9.07549 6.09481 8.97615C5.32413 8.11699 4.85839 7.00094 4.85839 5.7805V5.78011ZM1.02284 16.1339C1.37407 13.3616 3.09897 10.9944 5.52756 9.67116C5.52837 9.67077 5.52919 9.67038 5.53 9.6696C6.49721 10.6844 7.83677 11.3693 9.33956 11.5261C9.34321 11.5261 9.34646 11.5268 9.35012 11.5272C9.39641 11.5319 9.4427 11.5362 9.48899 11.5396C9.49833 11.5404 9.50766 11.5412 9.517 11.542C9.55842 11.5451 9.59984 11.5478 9.64126 11.5501C9.65425 11.5509 9.66724 11.5517 9.68024 11.5525C9.72003 11.5544 9.76023 11.5559 9.80043 11.5571C9.81383 11.5575 9.82723 11.5583 9.84103 11.5587C9.89382 11.5598 9.94701 11.5606 10.0002 11.5606C10.0534 11.5606 10.1066 11.5598 10.1594 11.5587C10.1728 11.5587 10.1866 11.5575 10.2 11.5571C10.2402 11.5559 10.2804 11.5544 10.3202 11.5525C10.3332 11.5517 10.3462 11.5509 10.3592 11.5501C10.4006 11.5478 10.442 11.5451 10.4834 11.542C10.4927 11.5412 10.5021 11.5404 10.5114 11.5396C10.5577 11.5358 10.604 11.5319 10.6503 11.5272C10.6539 11.5272 10.6572 11.5265 10.6608 11.5261C12.164 11.3693 13.5032 10.684 14.4704 9.6696C14.4712 9.66999 14.472 9.67038 14.4728 9.67116C16.9014 10.9944 18.6259 13.362 18.9776 16.1339H1.02284Z" fill="#E6E6E6"/>
<path d="M9.3501 11.5273C9.39639 11.532 9.44268 11.5363 9.48897 11.5398C9.44268 11.5359 9.39598 11.532 9.3501 11.5273Z" fill="black"/>
<path d="M9.67993 11.5527C9.72013 11.5547 9.75992 11.5562 9.80012 11.5574C9.75992 11.5562 9.71972 11.5547 9.67993 11.5527Z" fill="black"/>
<path d="M9.84058 11.5586C9.89377 11.5598 9.94656 11.5605 9.99975 11.5605C9.94656 11.5605 9.89336 11.5598 9.84058 11.5586Z" fill="black"/>
<path d="M10.6609 11.5264C12.0203 11.3859 13.2815 10.8135 14.265 9.87909C14.3365 9.81118 14.4059 9.7421 14.4729 9.67147C14.4721 9.67109 14.4713 9.6707 14.4705 9.66992C13.5032 10.6843 12.1637 11.3696 10.6609 11.5264Z" fill="black"/>
<path d="M9.33959 11.5264C7.83639 11.3696 6.49724 10.6843 5.53002 9.66992C5.52921 9.67031 5.5284 9.6707 5.52759 9.67147C5.59499 9.7421 5.66443 9.81118 5.73549 9.87909C6.71894 10.8139 7.98013 11.3863 9.33959 11.5264Z" fill="black"/>
<path d="M10.5115 11.5398C10.5578 11.5359 10.6041 11.532 10.6503 11.5273C10.6041 11.532 10.5578 11.5363 10.5115 11.5398Z" fill="black"/>
<path d="M10.0002 1.00039C7.1603 1.00039 4.8584 3.20067 4.8584 5.91435C4.8584 7.13479 5.32414 8.25084 6.09482 9.11L6.19999 9.22021C7.17004 10.2377 8.54777 10.8229 9.98194 10.8279C9.98803 10.8279 9.99412 10.8279 10.0002 10.8279C10.0063 10.8279 10.0128 10.8279 10.0189 10.8279C11.4531 10.8229 12.8304 10.2377 13.8008 9.22021L13.906 9.11C14.6767 8.25084 15.1424 7.1344 15.1424 5.91397C15.1424 3.1999 12.8401 1 10.0006 1L10.0002 1.00039Z" fill="#6B6B6B"/>
<path d="M6.19965 9.08677L6.09448 8.97656C6.18381 9.07629 6.2772 9.17253 6.37425 9.26489C7.30005 10.1446 8.57423 10.6898 9.9816 10.6945C8.54743 10.6894 7.1697 10.1043 6.19965 9.08677Z" fill="black"/>
<path d="M10.019 10.6945C11.4263 10.6898 12.7005 10.1446 13.6259 9.26489C13.7234 9.17253 13.8163 9.07591 13.9057 8.97656L13.8005 9.08677C12.8305 10.1043 11.4527 10.6894 10.0186 10.6945H10.019Z" fill="black"/>
</g>
<defs>
<clipPath id="clip0_2611_8804">
<rect width="20" height="17" fill="white"/>
</clipPath>
</defs>
</svg>
