<svg viewBox="0 0 19.876 18.702" width="19.876" height="18.702">
  <path d="M 19.828 0.293 C 19.739 0.093 19.528 -0.023 19.307 0.004 C 14.348 0.656 11.06 2.381 9.54 5.135 C 7.926 8.042 8.789 11.186 9.23 12.391 C 8.972 13.232 8.771 14.032 8.62 14.758 C 8.391 14.265 8.067 13.684 7.626 13.098 C 7.645 12.302 7.499 11.042 6.561 10.018 C 5.374 8.721 3.315 8.232 0.439 8.567 C 0.218 8.591 0.04 8.763 0.007 8.981 C -0.03 9.2 0.087 9.414 0.289 9.507 C 0.345 9.535 1.729 10.195 1.757 11.614 C 1.762 11.684 1.931 13.307 3.277 14.153 C 3.793 14.479 4.403 14.642 5.097 14.642 C 5.726 14.642 6.43 14.507 7.199 14.237 C 7.903 15.353 8.142 16.316 8.142 16.335 C 8.165 16.442 8.226 16.525 8.301 16.595 C 8.175 17.502 8.137 18.088 8.133 18.181 C 8.118 18.456 8.33 18.688 8.606 18.702 C 8.616 18.702 8.625 18.702 8.635 18.702 C 8.897 18.702 9.118 18.498 9.132 18.232 C 9.132 18.186 9.268 15.963 10.056 13.195 C 10.52 13.242 10.971 13.27 11.398 13.27 C 13.56 13.27 15.226 12.679 16.366 11.507 C 18.411 9.405 17.951 6.242 17.923 6.074 C 17.238 3.056 19.607 0.953 19.706 0.865 C 19.87 0.721 19.922 0.488 19.833 0.288 L 19.828 0.293 Z" fill="black"></path>
</svg>
