<?xml version="1.0" encoding="UTF-8"?>
<svg width="16px" height="16px" viewBox="0 0 16 16" version="1.1" xmlns="http://www.w3.org/2000/svg" xmlns:xlink="http://www.w3.org/1999/xlink">
    <!-- Generator: Sketch 51.3 (57544) - http://www.bohemiancoding.com/sketch -->
    <title>Bag of seeds</title>
    <desc>Created with Sketch.</desc>
    <defs></defs>
    <g id="Plant-geneology-v2" stroke="none" stroke-width="1" fill="none" fill-rule="evenodd">
        <g id="Icons_Plant-geneology" transform="translate(-507.000000, -504.000000)">
            <g id="Bag-of-seeds" transform="translate(503.000000, 500.000000)">
                <path d="M24.9695562,13.9186689 C25.0748337,13.3155847 24.8317891,11.7640769 24.5338561,11.4661439 C24.2359231,11.1682109 22.7148577,10.9225066 22.1257412,11.0227878 C21.3188493,11.1601394 20.5881006,11.3724849 19.929729,11.6539261 C16.4593827,13.1374325 15,16.5407326 15,21 C20.2897193,21 24.0900579,18.9568912 24.9695562,13.9186689 Z" id="Shape-Copy-2" fill="#000000" opacity="0" transform="translate(19.997272, 16.000000) rotate(-15.000000) translate(-19.997272, -16.000000) "></path>
                <polygon id="Shape" points="0 0 24 0 24 24 0 24"></polygon>
                <path d="M19.95129,8.6698702 C20.119734,7.70493558 19.7308625,5.22252308 19.2541697,4.74583028 C18.7774769,4.26913748 16.3437723,3.87601054 15.4011859,4.03646045 C14.1101589,4.25622297 12.940961,4.59597579 11.8875665,5.04628175 C6.33501232,7.41989205 4,12.8651722 4,20 C12.4635509,20 18.5440926,16.7310258 19.95129,8.6698702 Z" id="Shape" fill="#000000"></path>
                <path d="M15,11 C16.1045695,11 17,10.1045695 17,9 C17,7.8954305 16.1045695,7 15,7 C13.8954305,7 13,7.8954305 13,9 C13,10.1045695 12.1864853,10.9954349 12.5508237,11.3783699 C12.9151621,11.7613049 13.8954305,11 15,11 Z" id="Oval-7" fill="#FFFFFF"></path>
            </g>
        </g>
    </g>
</svg>
