<?xml version="1.0" encoding="UTF-8"?>
<svg width="22px" height="11px" viewBox="0 0 22 11" version="1.1" xmlns="http://www.w3.org/2000/svg" xmlns:xlink="http://www.w3.org/1999/xlink">
    <!-- Generator: Sketch 51.3 (57544) - http://www.bohemiancoding.com/sketch -->
    <title>Bag of media</title>
    <desc>Created with Sketch.</desc>
    <defs></defs>
    <g id="Plant-geneology-v2" stroke="none" stroke-width="1" fill="none" fill-rule="evenodd">
        <g id="Icons_Plant-geneology" transform="translate(-661.000000, -507.000000)">
            <g id="Bag-of-media" transform="translate(660.000000, 500.000000)">
                <polygon id="Shape-Copy-20" points="0 0 24 0 24 24 0 24"></polygon>
                <path d="M4.38311994,7.55534592 C5.62202087,8.74146429 6.49594399,9.39300341 7.0048893,9.50996327 C8.44707852,9.84139034 9.61358546,7.00710388 12.0000299,7.00710388 C14.3864743,7.00710388 15.5715728,9.83906949 17.0253786,9.5030007 C17.5286074,9.3866719 18.3919364,8.74157221 19.6153657,7.56770163 L19.615378,7.56771445 C20.4123956,6.80298246 21.6784438,6.82915512 22.4431758,7.62617273 C22.8005054,7.99858815 23.00003,8.49472459 23.00003,9.01084249 L23.00003,15.0071429 C23.00003,16.1117124 22.1045995,17.0071429 21.00003,17.0071429 L3,17.0071475 C1.8954305,17.0071475 1,16.111717 1,15.0071475 C1,15.007146 1,15.0071444 1,15.0071429 L1.00002249,8.99999128 C1.00002502,7.89542407 1.89545572,6.99999747 3.00002294,7 C3.51538713,7.00000118 4.01085875,7.19894467 4.38311994,7.55534592 Z" id="Rectangle-31-Copy-14" fill="#000000"></path>
            </g>
        </g>
    </g>
</svg>
