<?xml version="1.0" encoding="UTF-8"?>
<svg width="17px" height="21px" viewBox="0 0 17 21" version="1.1" xmlns="http://www.w3.org/2000/svg" xmlns:xlink="http://www.w3.org/1999/xlink">
    <!-- Generator: Sketch 59 (86127) - https://sketch.com -->
    <title>Collapse</title>
    <desc>Created with Sketch.</desc>
    <g id="Symbols" stroke="none" stroke-width="1" fill="none" fill-rule="evenodd">
        <g id="Single-Recipe-Header" transform="translate(-994.000000, -13.000000)" fill="#000000">
            <g id="Collapse">
                <g transform="translate(994.000000, 13.000000)">
                    <path d="M11.625,17.7920125 C11.34765,17.7929775 11.082025,17.6845775 10.88575,17.489275 L8.5,15.093775 L6.11425,17.489275 C5.701175,17.843775 5.08495,17.81935 4.7002,17.4345875 C4.315425,17.0498125 4.292,16.4345875 4.6455125,16.0205375 L7.7705125,12.8955375 C8.1767625,12.4922125 8.8330125,12.4922125 9.2392625,12.8955375 L12.3642625,16.0205375 C12.6572375,16.3193625 12.7431625,16.7656625 12.582035,17.1513875 C12.4209025,17.5381125 12.04396,17.7900625 11.62501,17.7920125 L11.625,17.7920125 Z" id="Fill-1"></path>
                    <path d="M8.5,8.41700655 C8.22265,8.4179775 7.957025,8.3095775 7.76075,8.114275 L4.63575,4.989275 C4.43946,4.792985 4.3291,4.52735 4.3291,4.250025 C4.3291,3.9727 4.4394525,3.70705 4.63575,3.510775 C5.04395,3.1016 5.70605,3.1016 6.114275,3.510775 L8.500025,5.906275 L10.885775,3.520525 C11.29885,3.167 11.915075,3.19045 12.299825,3.5752125 C12.6846,3.9599875 12.708025,4.5761875 12.3545125,4.9892625 L9.2295125,8.1142625 C9.0351775,8.306645 8.7734625,8.4150375 8.5000125,8.41700655 L8.5,8.41700655 Z" id="Fill-2"></path>
                    <path d="M15.792,11.542 L1.208,11.542 C0.6328,11.542 0.166975,11.0752 0.166975,10.5 C0.166975,9.9248 0.6328,9.458 1.208,9.458 L15.792,9.458 C16.3672,9.458 16.833025,9.9248 16.833025,10.5 C16.833025,11.0752 16.3672,11.542 15.792,11.542 Z" id="Fill-3"></path>
                    <path d="M8.5,20.9169998 C7.9248,20.9169998 7.458,20.4502 7.458,19.875 L7.458,13.625 C7.458,13.0498 7.9248,12.583 8.5,12.583 C9.0752,12.583 9.542,13.0498 9.542,13.625 L9.542,19.875 C9.542,20.151375 9.4316475,20.416025 9.236325,20.6113248 C9.0410025,20.8066247 8.776375,20.9169998 8.5,20.9169998 Z" id="Fill-4"></path>
                    <path d="M8.5,8.417 C7.9248,8.417 7.458,7.9502 7.458,7.375 L7.458,1.125 C7.458,0.5498 7.9248,0.083 8.5,0.083 C9.0752,0.083 9.542,0.5498 9.542,1.125 L9.542,7.375 C9.542,7.651375 9.4316475,7.916025 9.236325,8.111325 C9.0410025,8.306625 8.776375,8.417 8.5,8.417 Z" id="Fill-5"></path>
                </g>
            </g>
        </g>
    </g>
</svg>
