<?xml version="1.0" encoding="UTF-8"?>
<svg width="19px" height="23px" viewBox="0 0 19 23" version="1.1" xmlns="http://www.w3.org/2000/svg" xmlns:xlink="http://www.w3.org/1999/xlink">
    <!-- Generator: Sketch 51.3 (57544) - http://www.bohemiancoding.com/sketch -->
    <title>Plant_Alt_4</title>
    <desc>Created with Sketch.</desc>
    <defs></defs>
    <g id="Plant-geneology-v2" stroke="none" stroke-width="1" fill="none" fill-rule="evenodd">
        <g id="Icons_Plant-geneology" transform="translate(-683.000000, -835.000000)">
            <g id="Plant_Alt_4" transform="translate(680.000000, 830.000000)">
                <g id="Group">
                    <polygon id="Shape" points="0 0 24 0 24 24 0 24"></polygon>
                    <path d="M13,22 C17.97,22 22,17.97 22,13 C17.03,13 13,17.03 13,22 L13,22 Z M12.5,17.863961 C16.0143207,14.3496403 16.0143207,8.65035967 12.5,5.13603897 C8.9856793,8.65035967 8.9856793,14.3496403 12.5,17.863961 L12.5,17.863961 Z M12.5,23 C13.88,23 15,24.12 15,25.5 C15,26.88 13.88,28 12.5,28 C11.12,28 10,26.88 10,25.5 C10,24.12 11.12,23 12.5,23 L12.5,23 Z M18.5,22 C19.88,22 21,23.12 21,24.5 C21,25.88 19.88,27 18.5,27 C17.12,27 16,25.88 16,24.5 C16,23.12 17.12,22 18.5,22 L18.5,22 Z M6.5,22 C7.88,22 9,23.12 9,24.5 C9,25.88 7.88,27 6.5,27 C5.12,27 4,25.88 4,24.5 C4,23.12 5.12,22 6.5,22 L6.5,22 Z M3,13 C3,17.97 7.03,22 12,22 C12,17.03 7.97,13 3,13 L3,13 Z" id="Shape" fill="#000000"></path>
                </g>
            </g>
        </g>
    </g>
</svg>
