<?xml version="1.0" encoding="UTF-8"?>
<svg width="28px" height="23px" viewBox="0 0 28 23" version="1.1" xmlns="http://www.w3.org/2000/svg" xmlns:xlink="http://www.w3.org/1999/xlink">
    <!-- Generator: Sketch 51.3 (57544) - http://www.bohemiancoding.com/sketch -->
    <title>Plant</title>
    <desc>Created with Sketch.</desc>
    <defs></defs>
    <g id="Plant-geneology-v2" stroke="none" stroke-width="1" fill="none" fill-rule="evenodd">
        <g id="Icons_Plant-geneology" transform="translate(-1312.000000, -501.000000)">
            <g id="Plant" transform="translate(1309.000000, 501.000000)">
                <g id="Group-15">
                    <g id="Group-14-Copy" transform="translate(25.117117, 12.833333) rotate(-315.000000) translate(-25.117117, -12.833333) translate(20.216216, 5.500000)">
                        <path d="M4.9009009,13.5384623 C7.60759373,13.5384623 9.8018018,11.8259716 9.8018018,9.26696884 C9.8018018,8.43919268 9.41719098,6.09885284 8.64796934,4.61987552 C8.103901,3.57379895 6.85487818,2.03384044 4.9009009,0 C2.9570352,2.0372393 1.71297823,3.57719781 1.16873,4.61987552 C0.389576668,6.11258745 0,8.43386596 0,9.26696884 C0,11.8259716 2.19420807,13.5384623 4.9009009,13.5384623 Z" id="Oval-8-Copy-7" stroke="#F6F6F6" fill="#000000"></path>
                        <polygon id="Rectangle-34-Copy" fill="#F2F2F2" points="4.9009009 1.3968254 5.33625374 6.33503457 5.6010296 14.2854043 4.2007722 14.2854043 4.46538141 6.33810239"></polygon>
                    </g>
                    <g id="Group-14-Copy-2" transform="translate(9.495495, 12.833333) rotate(-45.000000) translate(-9.495495, -12.833333) translate(4.594595, 5.500000)">
                        <path d="M4.9009009,13.5384623 C7.60759373,13.5384623 9.8018018,11.8259716 9.8018018,9.26696884 C9.8018018,8.43919268 9.41719098,6.09885284 8.64796934,4.61987552 C8.103901,3.57379895 6.85487818,2.03384044 4.9009009,0 C2.9570352,2.0372393 1.71297823,3.57719781 1.16873,4.61987552 C0.389576668,6.11258745 0,8.43386596 0,9.26696884 C0,11.8259716 2.19420807,13.5384623 4.9009009,13.5384623 Z" id="Oval-8-Copy-7" stroke="#F6F6F6" fill="#000000"></path>
                        <polygon id="Rectangle-34-Copy" fill="#F2F2F2" points="4.9009009 1.3968254 5.33625374 6.33503457 5.6010296 14.2854043 4.2007722 14.2854043 4.46538141 6.33810239"></polygon>
                    </g>
                    <g id="Group-14" transform="translate(10.873874, 0.000000)">
                        <path d="M6.43243243,17.7692318 C9.98496677,17.7692318 12.8648649,15.5215878 12.8648649,12.1628966 C12.8648649,11.0764404 12.3600632,8.00474435 11.3504598,6.06358663 C10.6363701,4.69061112 8.99702762,2.66941557 6.43243243,0 C3.8811087,2.67387658 2.24828393,4.69507212 1.53395813,6.06358663 C0.511319377,8.02277103 0,11.0694491 0,12.1628966 C0,15.5215878 2.8798981,17.7692318 6.43243243,17.7692318 Z" id="Oval-8-Copy-7" stroke="#F6F6F6" fill="#000000"></path>
                        <polygon id="Rectangle-34-Copy" fill="#F2F2F2" points="6.43243243 1.83333333 7.00383303 8.31473287 7.35135135 18.7495931 5.51351351 18.7495931 5.86081311 8.31875939"></polygon>
                    </g>
                </g>
                <path d="M23,20.5 C23,21.88 21.88,23 20.5,23 C19.12,23 18,21.88 18,20.5 C18,19.12 19.12,18 20.5,18 C21.88,18 23,19.12 23,20.5 Z" id="Path" fill="#000000"></path>
                <path d="M14.5,18 C15.88,18 17,19.12 17,20.5 C17,21.88 15.88,23 14.5,23 C13.12,23 12,21.88 12,20.5 C12,19.12 13.12,18 14.5,18 L14.5,18 Z" id="Path-Copy-3" fill="#000000"></path>
            </g>
        </g>
    </g>
</svg>
